<svg width="801" height="517" viewBox="0 0 801 517" fill="none" xmlns="http://www.w3.org/2000/svg">
<path d="M173.863 397.084L335.188 303.934" stroke="url(#paint0_linear_329_661)" stroke-width="5"/>
<path d="M74.5854 339.762C74.5854 339.762 88.5455 331.702 105.611 321.846C122.671 311.996 164.556 307.161 198.681 311.101C232.811 315.041 271.901 311.816 285.551 303.936C299.201 296.051 310.371 289.606 310.371 289.606" stroke="url(#paint1_linear_329_661)" stroke-width="5"/>
<path d="M384.928 274.883L546.298 181.707" stroke="url(#paint2_linear_329_661)" stroke-width="5"/>
<path d="M360.102 260.549C360.102 260.549 371.275 254.097 384.929 246.215C398.583 238.328 404.169 215.752 397.342 196.041C390.516 176.331 398.358 152.144 414.772 142.286C431.187 132.433 444.616 124.371 444.616 124.371" stroke="url(#paint3_linear_329_661)" stroke-width="5"/>
<path d="M409.754 289.218C409.754 289.218 423.718 281.156 440.788 271.298C457.853 261.446 499.75 256.609 533.884 260.55C568.024 264.491 607.124 261.266 620.778 253.383C634.432 245.496 645.605 239.049 645.605 239.049" stroke="url(#paint4_linear_329_661)" stroke-width="5"/>
<path d="M674.809 337.893C674.809 337.893 660.077 331.338 642.069 323.323C624.065 315.313 581.893 314.893 548.359 322.39C514.82 329.886 475.597 330.775 461.192 324.367C446.787 317.954 435 312.714 435 312.714" stroke="url(#paint5_linear_329_661)" stroke-width="5"/>
<path d="M273.14 454.408C273.14 454.408 287.1 446.348 304.165 436.493C321.225 426.643 329.605 402.458 322.78 382.753C315.955 363.048 321.54 340.478 335.19 332.598C348.84 324.713 360.01 318.268 360.01 318.268" stroke="url(#paint6_linear_329_661)" stroke-width="5"/>
<g opacity="0.25" filter="url(#filter0_f_329_661)">
<path fill-rule="evenodd" clip-rule="evenodd" d="M29.608 360.007C19.464 354.151 19.464 344.57 29.608 338.714L56.1475 323.392C66.2871 317.536 82.8829 317.536 93.0268 323.392L119.562 338.714C129.706 344.57 129.706 354.151 119.562 360.007L93.0268 375.329C82.8829 381.185 66.2871 381.185 56.1475 375.329L29.608 360.007Z" fill="black"/>
</g>
<path opacity="0.15" d="M247.206 365.736C185.168 329.913 185.168 271.293 247.206 235.47C309.244 199.647 410.768 199.647 472.805 235.47C534.852 271.293 534.852 329.913 472.805 365.736C410.768 401.559 309.244 401.559 247.206 365.736Z" fill="url(#paint7_linear_329_661)"/>
<path opacity="0.15" d="M265.598 355.116C213.675 325.134 213.675 276.072 265.598 246.09C317.521 216.107 402.492 216.107 454.415 246.09C506.345 276.072 506.345 325.134 454.415 355.116C402.492 385.099 317.521 385.099 265.598 355.116Z" fill="url(#paint8_linear_329_661)"/>
<path opacity="0.2" d="M283.99 344.497C242.182 320.355 242.182 280.851 283.99 256.709C325.798 232.568 394.216 232.568 436.024 256.709C477.838 280.851 477.838 320.355 436.024 344.497C394.216 368.638 325.798 368.638 283.99 344.497Z" fill="url(#paint9_linear_329_661)"/>
<path d="M29.6083 349.009C24.5361 346.081 22 342.221 22 338.362C22 335.789 22 332.789 22 329.362L56.1488 312.392C66.2889 306.536 82.8853 306.536 93.0297 312.392L127.17 329.362C127.173 332.789 127.174 335.789 127.174 338.362C127.174 342.221 124.638 346.081 119.566 349.009L93.0297 364.332C82.8853 370.187 66.2889 370.187 56.1488 364.332L29.6083 349.009Z" fill="url(#paint10_linear_329_661)"/>
<path d="M29.6083 340.009C19.4639 334.153 19.4639 324.571 29.6083 318.715L56.1488 303.392C66.2889 297.536 82.8853 297.536 93.0297 303.392L119.566 318.715C129.71 324.571 129.71 334.153 119.566 340.009L93.0297 355.332C82.8853 361.187 66.2889 361.187 56.1488 355.332L29.6083 340.009Z" fill="url(#paint11_linear_329_661)"/>
<g opacity="0.25" filter="url(#filter1_f_329_661)">
<path fill-rule="evenodd" clip-rule="evenodd" d="M128.608 418.007C118.464 412.151 118.464 402.57 128.608 396.714L155.147 381.392C165.287 375.536 181.883 375.536 192.027 381.392L218.562 396.714C228.706 402.57 228.706 412.151 218.562 418.007L192.027 433.329C181.883 439.185 165.287 439.185 155.147 433.329L128.608 418.007Z" fill="black"/>
</g>
<g opacity="0.25" filter="url(#filter2_f_329_661)">
<path fill-rule="evenodd" clip-rule="evenodd" d="M228.608 475.007C218.464 469.151 218.464 459.57 228.608 453.714L255.147 438.392C265.287 432.536 281.883 432.536 292.027 438.392L318.562 453.714C328.706 459.57 328.706 469.151 318.562 475.007L292.027 490.329C281.883 496.185 265.287 496.185 255.147 490.329L228.608 475.007Z" fill="black"/>
</g>
<path d="M128.608 407.009C123.536 404.081 121 400.221 121 396.362C121 393.789 121 390.789 121 387.362L155.149 370.392C165.289 364.536 181.885 364.536 192.03 370.392L226.17 387.362C226.173 390.789 226.174 393.789 226.174 396.362C226.174 400.221 223.638 404.081 218.566 407.009L192.03 422.332C181.885 428.187 165.289 428.187 155.149 422.332L128.608 407.009Z" fill="url(#paint12_linear_329_661)"/>
<path d="M128.608 398.009C118.464 392.153 118.464 382.571 128.608 376.715L155.149 361.392C165.289 355.536 181.885 355.536 192.03 361.392L218.566 376.715C228.71 382.571 228.71 392.153 218.566 398.009L192.03 413.332C181.885 419.187 165.289 419.187 155.149 413.332L128.608 398.009Z" fill="url(#paint13_linear_329_661)"/>
<path d="M228.608 464.009C223.536 461.081 221 457.221 221 453.362C221 450.789 221 447.789 221 444.362L255.149 427.392C265.289 421.536 281.885 421.536 292.03 427.392L326.17 444.362C326.173 447.789 326.174 450.789 326.174 453.362C326.174 457.221 323.638 461.081 318.566 464.009L292.03 479.332C281.885 485.187 265.289 485.187 255.149 479.332L228.608 464.009Z" fill="url(#paint14_linear_329_661)"/>
<path d="M228.608 455.009C218.464 449.153 218.464 439.571 228.608 433.715L255.149 418.392C265.289 412.536 281.885 412.536 292.03 418.392L318.566 433.715C328.71 439.571 328.71 449.153 318.566 455.009L292.03 470.332C281.885 476.187 265.289 476.187 255.149 470.332L228.608 455.009Z" fill="url(#paint15_linear_329_661)"/>
<path d="M266.771 395.4C265.965 394.934 265.231 394.889 264.697 395.192C264.336 395.396 263.393 395.941 261.868 396.828L263.82 435.872C263.82 437.747 265.148 440.047 266.771 440.984L279.844 450.818C281.381 449.928 282.327 449.381 282.684 449.178C283.222 448.871 283.557 448.209 283.557 447.268V408.5C283.557 406.626 282.229 404.325 280.605 403.388L266.771 395.4Z" fill="url(#paint16_linear_329_661)"/>
<mask id="mask0_329_661" style="mask-type:luminance" maskUnits="userSpaceOnUse" x="261" y="396" width="20" height="55">
<path d="M261 396.628H280.737V451H261V396.628Z" fill="white"/>
</mask>
<g mask="url(#mask0_329_661)">
<path d="M263.951 397.028C262.328 396.091 261 396.858 261 398.732V437.5C261 439.375 262.328 441.675 263.951 442.612L277.785 450.6C279.409 451.537 280.737 450.771 280.737 448.896V410.128C280.737 408.254 279.409 405.953 277.785 405.016L263.951 397.028Z" fill="url(#paint17_linear_329_661)"/>
</g>
<path d="M162.668 329.344C162.021 328.971 161.454 328.901 161.022 329.136C160.722 329.299 159.96 329.741 158.736 330.461L160.291 378.088C160.291 379.612 161.371 381.481 162.69 382.244L184.793 396.838C186.021 396.124 186.779 395.686 187.068 395.527C187.514 395.28 187.791 394.739 187.791 393.967V346.578C187.791 345.055 186.712 343.185 185.392 342.423L162.668 329.344Z" fill="url(#paint18_linear_329_661)"/>
<mask id="mask1_329_661" style="mask-type:luminance" maskUnits="userSpaceOnUse" x="158" y="330" width="28" height="67">
<path d="M158 330.313H185.5V397H158V330.313Z" fill="white"/>
</mask>
<g mask="url(#mask1_329_661)">
<path d="M160.399 330.639C159.079 329.877 158 330.5 158 332.024V379.412C158 380.935 159.079 382.805 160.399 383.567L183.101 396.675C184.42 397.437 185.5 396.814 185.5 395.29V347.902C185.5 346.378 184.42 344.509 183.101 343.747L160.399 330.639Z" fill="url(#paint19_linear_329_661)"/>
</g>
<mask id="mask2_329_661" style="mask-type:luminance" maskUnits="userSpaceOnUse" x="40" y="310" width="66" height="39">
<path d="M40 310.965H105.877V349H40V310.965Z" fill="white"/>
</mask>
<g mask="url(#mask2_329_661)">
<path d="M41.4389 329.111C40.4793 328.557 39.9995 327.827 39.9995 327.097C39.9995 326.61 39.9995 326.22 39.9995 325.927L64.4531 311.796C66.3702 310.688 69.5098 310.688 71.429 311.796L105.877 331.625C105.877 331.967 105.877 332.382 105.877 332.868C105.877 333.598 105.397 334.328 104.438 334.882L81.4237 348.17C79.5065 349.277 76.3669 349.277 74.4477 348.17L41.4389 329.111Z" fill="url(#paint20_linear_329_661)"/>
</g>
<path d="M72.4515 310.105C70.5324 308.997 68.9636 306.278 68.9636 304.063L68.7561 275.998C69.2173 275.618 69.7012 275.328 70.2077 275.127C70.8152 274.886 71.5988 274.981 72.4515 275.473L105.46 294.534C107.38 295.641 108.948 298.36 108.948 300.575V327.15C108.948 328.245 108.565 329.021 107.945 329.391C107.522 329.643 107.183 329.847 106.928 330.004L72.4515 310.105Z" fill="url(#paint21_linear_329_661)"/>
<path d="M71.4284 310.724C69.5092 309.616 67.9404 306.898 67.9404 304.682V278.106C67.9404 275.89 69.5092 274.984 71.4284 276.092L104.437 295.153C106.356 296.26 107.925 298.979 107.925 301.194V327.769C107.925 329.984 106.356 330.89 104.437 329.783L71.4284 310.724Z" fill="url(#paint22_linear_329_661)"/>
<path d="M41.4394 327.926C39.5202 326.818 39.5202 325.006 41.4394 323.898L64.4536 310.611C66.3707 309.503 69.5103 309.503 71.4295 310.611L104.438 329.67C106.358 330.778 106.358 332.59 104.438 333.698L81.4242 346.985C79.507 348.093 76.3674 348.093 74.4482 346.985L41.4394 327.926Z" fill="url(#paint23_linear_329_661)"/>
<g opacity="0.25" filter="url(#filter3_f_329_661)">
<path fill-rule="evenodd" clip-rule="evenodd" d="M608.356 227.869C628.831 216.044 662.336 216.044 682.816 227.869C703.291 239.689 703.291 259.034 682.816 270.859C662.336 282.684 628.831 282.684 608.356 270.859C587.881 259.034 587.881 239.689 608.356 227.869Z" fill="black"/>
</g>
<g opacity="0.25" filter="url(#filter4_f_329_661)">
<path fill-rule="evenodd" clip-rule="evenodd" d="M509.356 169.869C529.831 158.044 563.336 158.044 583.816 169.869C604.291 181.689 604.291 201.034 583.816 212.859C563.336 224.684 529.831 224.684 509.356 212.859C488.881 201.034 488.881 181.689 509.356 169.869Z" fill="black"/>
</g>
<path d="M494.004 181.358C494.004 176.163 494.004 172.694 494.004 170.95H599.177C599.177 172.694 599.177 176.163 599.177 181.358C599.177 189.149 594.058 196.941 583.821 202.853C563.341 214.678 529.836 214.678 509.361 202.853C499.124 196.941 494.004 189.149 494.004 181.358Z" fill="url(#paint24_linear_329_661)"/>
<path d="M509.356 149.869C529.831 138.044 563.336 138.044 583.816 149.869C604.291 161.689 604.291 181.034 583.816 192.859C563.336 204.684 529.831 204.684 509.356 192.859C488.881 181.034 488.881 161.689 509.356 149.869Z" fill="url(#paint25_linear_329_661)"/>
<path opacity="0.15" d="M546.585 151.864C555.382 151.864 564.183 153.784 570.859 157.638C574.094 159.506 576.54 161.662 578.19 163.97C579.875 166.329 580.724 168.845 580.724 171.363C580.724 176.355 577.396 181.314 570.859 185.089C564.183 188.944 555.382 190.864 546.585 190.864C537.788 190.864 528.988 188.944 522.314 185.089C515.777 181.314 512.449 176.355 512.449 171.363C512.449 168.845 513.298 166.329 514.983 163.97C516.632 161.662 519.078 159.506 522.314 157.638C528.988 153.784 537.788 151.864 546.585 151.864Z" stroke="#0452E3"/>
<path opacity="0.5" d="M571.163 89.6409C577.908 93.535 581.28 98.6682 581.28 103.801V171.714C581.135 176.738 577.764 181.736 571.163 185.548C557.675 193.336 535.603 193.336 522.116 185.548C515.515 181.736 512.145 176.738 512.005 171.714L512 171.714V103.801C512 98.6682 515.372 93.535 522.116 89.6409C535.603 81.8528 557.675 81.8528 571.163 89.6409Z" fill="url(#paint26_linear_329_661)"/>
<path d="M593.004 239.358C593.004 234.163 593.004 230.694 593.004 228.95H698.177C698.177 230.694 698.177 234.163 698.177 239.358C698.177 247.149 693.058 254.941 682.821 260.853C662.341 272.678 628.836 272.678 608.361 260.853C598.124 254.941 593.004 247.149 593.004 239.358Z" fill="url(#paint27_linear_329_661)"/>
<path d="M608.356 207.869C628.831 196.044 662.336 196.044 682.816 207.869C703.291 219.689 703.291 239.034 682.816 250.859C662.336 262.684 628.831 262.684 608.356 250.859C587.881 239.034 587.881 219.689 608.356 207.869Z" fill="url(#paint28_linear_329_661)"/>
<path opacity="0.15" d="M645.586 209.86C654.384 209.86 663.184 211.78 669.86 215.635C673.096 217.502 675.542 219.658 677.191 221.966C678.876 224.325 679.725 226.841 679.725 229.359C679.725 234.351 676.397 239.31 669.86 243.085C663.184 246.94 654.384 248.86 645.586 248.86C636.789 248.86 627.989 246.94 621.315 243.085C614.778 239.31 611.45 234.351 611.45 229.359C611.45 226.841 612.299 224.325 613.984 221.966C615.633 219.658 618.079 217.502 621.315 215.635C627.989 211.78 636.789 209.86 645.586 209.86Z" stroke="#0452E3"/>
<path opacity="0.5" d="M670.163 147.541C676.908 151.435 680.28 156.569 680.28 161.702V229.615C680.135 234.638 676.764 239.637 670.163 243.448C656.675 251.236 634.603 251.236 621.116 243.448C614.515 239.637 611.145 234.638 611.005 229.615L611 229.615V161.702C611 156.569 614.372 151.435 621.116 147.541C634.603 139.753 656.675 139.753 670.163 147.541Z" fill="url(#paint29_linear_329_661)"/>
<g opacity="0.25" filter="url(#filter5_f_329_661)">
<path fill-rule="evenodd" clip-rule="evenodd" d="M409.356 112.869C429.831 101.044 463.336 101.044 483.816 112.869C504.291 124.689 504.291 144.034 483.816 155.859C463.336 167.684 429.831 167.684 409.356 155.859C388.881 144.034 388.881 124.689 409.356 112.869Z" fill="black"/>
</g>
<path d="M394.004 124.358C394.004 119.163 394.004 115.694 394.004 113.95H499.177C499.177 115.694 499.177 119.163 499.177 124.358C499.177 132.149 494.058 139.941 483.821 145.853C463.341 157.678 429.836 157.678 409.361 145.853C399.124 139.941 394.004 132.149 394.004 124.358Z" fill="url(#paint30_linear_329_661)"/>
<path d="M409.356 92.8688C429.831 81.0437 463.336 81.0437 483.816 92.8688C504.291 104.689 504.291 124.034 483.816 135.859C463.336 147.684 429.831 147.684 409.356 135.859C388.881 124.034 388.881 104.689 409.356 92.8688Z" fill="url(#paint31_linear_329_661)"/>
<path opacity="0.15" d="M446.586 94.8599C455.384 94.8599 464.184 96.7798 470.86 100.635C474.096 102.502 476.542 104.658 478.191 106.966C479.876 109.325 480.725 111.841 480.725 114.359C480.725 119.351 477.397 124.31 470.86 128.085C464.184 131.94 455.384 133.86 446.586 133.86C437.789 133.86 428.989 131.94 422.315 128.085C415.778 124.31 412.45 119.351 412.45 114.359C412.45 111.841 413.299 109.325 414.984 106.966C416.633 104.658 419.079 102.502 422.315 100.635C428.989 96.7798 437.789 94.8599 446.586 94.8599Z" stroke="#0452E3"/>
<path opacity="0.5" d="M471.163 32.6409C477.908 36.535 481.28 41.6682 481.28 46.8014V114.714C481.135 119.738 477.764 124.736 471.163 128.548C457.675 136.336 435.603 136.336 422.116 128.548C415.515 124.736 412.145 119.738 412.005 114.714L412 114.714V46.8014C412 41.6682 415.372 36.535 422.116 32.6409C435.603 24.8528 457.675 24.8528 471.163 32.6409Z" fill="url(#paint32_linear_329_661)"/>
<g opacity="0.25" filter="url(#filter6_f_329_661)">
<path fill-rule="evenodd" clip-rule="evenodd" d="M297.96 335.431C263.835 315.726 263.835 283.481 297.96 263.776C332.085 244.071 387.93 244.071 422.055 263.776C456.185 283.481 456.185 315.726 422.055 335.431C387.93 355.136 332.085 355.136 297.96 335.431Z" fill="black"/>
</g>
<path opacity="0.8" d="M297.96 325.431C263.835 305.726 263.835 273.481 297.96 253.776C332.085 234.071 387.93 234.071 422.055 253.776C456.185 273.481 456.185 305.726 422.055 325.431C387.93 345.136 332.085 345.136 297.96 325.431Z" fill="url(#paint33_linear_329_661)"/>
<path d="M297.96 315.431C263.835 295.726 263.835 263.481 297.96 243.776C332.085 224.071 387.93 224.071 422.055 243.776C456.185 263.481 456.185 295.726 422.055 315.431C387.93 335.136 332.085 335.136 297.96 315.431Z" fill="url(#paint34_linear_329_661)"/>
<path opacity="0.6" d="M422.055 72.7758C439.12 82.6284 447.653 95.6159 447.653 108.603V280.431L447.641 280.43C447.286 293.141 438.758 305.788 422.055 315.431C387.93 335.136 332.085 335.136 297.96 315.431C281.259 305.788 272.732 293.141 272.377 280.43L272.366 280.431V108.603C272.366 95.6159 280.897 82.6284 297.96 72.7758C332.085 53.0708 387.93 53.0708 422.055 72.7758Z" fill="url(#paint35_linear_329_661)"/>
<g filter="url(#filter7_f_329_661)">
<path d="M376.724 281.363L343.468 265.143C342.227 264.538 340.731 265.053 340.125 266.294C339.52 267.535 340.035 269.032 341.276 269.637L374.532 285.857C375.773 286.462 377.269 285.946 377.875 284.705C378.48 283.464 377.965 281.968 376.724 281.363Z" fill="#0452E3"/>
</g>
<path opacity="0.3" fill-rule="evenodd" clip-rule="evenodd" d="M628.489 188.885C637.043 193.823 643.977 189.82 643.977 179.942C643.977 170.065 637.043 158.054 628.489 153.115C619.934 148.177 613 152.18 613 162.058C613 171.935 619.934 183.946 628.489 188.885Z" fill="url(#paint36_linear_329_661)"/>
<path fill-rule="evenodd" clip-rule="evenodd" d="M633.651 173.981L625.907 175.471V163.548L633.651 173.981Z" fill="url(#paint37_linear_329_661)"/>
<path opacity="0.5" fill-rule="evenodd" clip-rule="evenodd" d="M527.68 95.7596C527.68 98.1141 529.392 101.011 531.504 102.231C533.615 103.45 535.327 102.53 535.327 100.175L540.107 102.935L540.107 103.07L540.225 103.002L545.632 112.369C546.34 113.594 546.377 114.913 545.744 115.415L545.632 115.491L543.604 116.662C542.897 117.07 541.773 116.465 541.022 115.3L540.9 115.101L540.107 113.726L540.107 131.635C540.107 132.854 539.251 133.349 538.195 132.739L524.812 125.012C523.756 124.402 522.9 122.92 522.9 121.7L522.899 104.005L522.292 104.357C521.545 104.788 520.335 104.089 519.588 102.796L517.56 99.2836C516.813 97.9903 516.813 96.5925 517.56 96.1614L522.899 93.0781L522.9 93L527.68 95.7596Z" fill="url(#paint38_linear_329_661)"/>
<path fill-rule="evenodd" clip-rule="evenodd" d="M517.448 96.2376L517.56 96.1616L522.292 104.357C521.545 104.788 520.335 104.09 519.588 102.796L517.56 99.2838C516.888 98.1199 516.821 96.8712 517.358 96.3189L517.448 96.2376Z" fill="url(#paint39_linear_329_661)"/>
<path fill-rule="evenodd" clip-rule="evenodd" d="M545.744 112.574L545.632 112.369L540.9 115.101C541.647 116.394 542.858 117.093 543.604 116.662L545.632 115.491C546.304 115.103 546.371 113.932 545.834 112.759L545.744 112.574Z" fill="url(#paint40_linear_329_661)"/>
<path fill-rule="evenodd" clip-rule="evenodd" d="M525.768 94.6558L527.68 95.7596C527.68 98.1141 529.392 101.011 531.504 102.231C533.616 103.45 535.328 102.53 535.328 100.175L535.327 100.174L537.239 101.278C537.239 104.864 534.773 106.359 531.693 104.696L531.504 104.59C528.336 102.762 525.768 98.3136 525.768 94.6558Z" fill="url(#paint41_linear_329_661)"/>
<path opacity="0.5" d="M559.602 105.206L569.302 110.806C570.203 111.326 570.934 112.592 570.934 113.632L570.233 135.902C570.202 136.897 569.481 137.284 568.603 136.777L567.575 136.184C566.737 135.7 566.035 134.561 565.951 133.55L564.629 117.518C564.62 117.41 564.54 117.288 564.451 117.247C564.373 117.211 564.312 117.246 564.304 117.331L562.982 131.836C562.899 132.751 562.197 133.079 561.359 132.595L560.331 132.001C559.452 131.494 558.732 130.275 558.7 129.243L558.001 106.233C557.971 105.23 558.601 104.758 559.433 105.122L559.602 105.206Z" fill="url(#paint42_linear_329_661)"/>
<mask id="mask3_329_661" style="mask-type:luminance" maskUnits="userSpaceOnUse" x="558" y="105" width="13" height="32">
<path d="M559.602 105.206L569.302 110.806C570.203 111.326 570.934 112.592 570.934 113.632L570.233 135.902C570.202 136.897 569.481 137.284 568.603 136.777L567.575 136.184C566.737 135.7 566.035 134.561 565.951 133.55L564.629 117.518C564.62 117.41 564.54 117.288 564.451 117.247C564.373 117.211 564.312 117.246 564.304 117.331L562.982 131.836C562.899 132.751 562.197 133.079 561.359 132.595L560.331 132.001C559.452 131.494 558.732 130.275 558.7 129.243L558.001 106.233C557.971 105.23 558.601 104.758 559.433 105.122L559.602 105.206Z" fill="white"/>
</mask>
<g mask="url(#mask3_329_661)">
<path fill-rule="evenodd" clip-rule="evenodd" d="M557.941 104.247L570.993 111.782V113.666L557.941 106.13V104.247Z" fill="url(#paint43_linear_329_661)"/>
</g>
<mask id="mask4_329_661" style="mask-type:luminance" maskUnits="userSpaceOnUse" x="558" y="105" width="13" height="32">
<path d="M559.602 105.206L569.302 110.806C570.203 111.326 570.934 112.592 570.934 113.632L570.233 135.902C570.202 136.897 569.481 137.284 568.603 136.777L567.575 136.184C566.737 135.7 566.035 134.561 565.951 133.55L564.629 117.518C564.62 117.41 564.54 117.288 564.451 117.247C564.373 117.211 564.312 117.246 564.304 117.331L562.982 131.836C562.899 132.751 562.197 133.079 561.359 132.595L560.331 132.001C559.452 131.494 558.732 130.275 558.7 129.243L558.001 106.233C557.971 105.23 558.601 104.758 559.433 105.122L559.602 105.206Z" fill="white"/>
</mask>
<g mask="url(#mask4_329_661)">
<path fill-rule="evenodd" clip-rule="evenodd" d="M557.941 128.738L570.993 136.273V138.157L557.941 130.622V128.738Z" fill="url(#paint44_linear_329_661)"/>
</g>
<path opacity="0.5" d="M541.242 68.9801C541.885 69.8877 542.395 70.4501 542.771 70.6673C543.399 71.0296 544.397 70.8606 545.767 70.1603C546.235 69.9211 546.941 70.2482 547.486 70.9566L560.963 88.4629C561.376 89 561.627 89.6684 561.627 90.2314V92.3202C561.627 93.222 560.994 93.5876 560.213 93.1367L540.414 81.7057C539.633 81.2548 539 80.1581 539 79.2562V69.0097C539 68.1078 539.633 67.7422 540.414 68.1931C540.711 68.3647 541.001 68.6401 541.242 68.9801Z" fill="url(#paint45_linear_329_661)"/>
<mask id="mask5_329_661" style="mask-type:luminance" maskUnits="userSpaceOnUse" x="539" y="68" width="23" height="26">
<path d="M541.242 68.9801C541.885 69.8877 542.395 70.4501 542.771 70.6673C543.399 71.0296 544.397 70.8606 545.767 70.1603C546.235 69.9211 546.941 70.2482 547.486 70.9566L560.963 88.4629C561.376 89 561.627 89.6684 561.627 90.2314V92.3202C561.627 93.222 560.994 93.5876 560.213 93.1367L540.414 81.7057C539.633 81.2548 539 80.1581 539 79.2562V69.0097C539 68.1078 539.633 67.7422 540.414 68.1931C540.711 68.3647 541.001 68.6401 541.242 68.9801Z" fill="white"/>
</mask>
<g mask="url(#mask5_329_661)">
<path fill-rule="evenodd" clip-rule="evenodd" d="M549.016 71.5396L550.156 73.1639L546.983 76.3251L545.843 74.7007L549.016 71.5396Z" fill="url(#paint46_linear_329_661)"/>
</g>
<mask id="mask6_329_661" style="mask-type:luminance" maskUnits="userSpaceOnUse" x="539" y="68" width="23" height="26">
<path d="M541.242 68.9801C541.885 69.8877 542.395 70.4501 542.771 70.6673C543.399 71.0296 544.397 70.8606 545.767 70.1603C546.235 69.9211 546.941 70.2482 547.486 70.9566L560.963 88.4629C561.376 89 561.627 89.6684 561.627 90.2314V92.3202C561.627 93.222 560.994 93.5876 560.213 93.1367L540.414 81.7057C539.633 81.2548 539 80.1581 539 79.2562V69.0097C539 68.1078 539.633 67.7422 540.414 68.1931C540.711 68.3647 541.001 68.6401 541.242 68.9801Z" fill="white"/>
</mask>
<g mask="url(#mask6_329_661)">
<path fill-rule="evenodd" clip-rule="evenodd" d="M551.857 75.6533L552.967 77.3053L549.624 80.2742L548.514 78.6222L551.857 75.6533Z" fill="url(#paint47_linear_329_661)"/>
</g>
<mask id="mask7_329_661" style="mask-type:luminance" maskUnits="userSpaceOnUse" x="539" y="68" width="23" height="26">
<path d="M541.242 68.9801C541.885 69.8877 542.395 70.4501 542.771 70.6673C543.399 71.0296 544.397 70.8606 545.767 70.1603C546.235 69.9211 546.941 70.2482 547.486 70.9566L560.963 88.4629C561.376 89 561.627 89.6684 561.627 90.2314V92.3202C561.627 93.222 560.994 93.5876 560.213 93.1367L540.414 81.7057C539.633 81.2548 539 80.1581 539 79.2562V69.0097C539 68.1078 539.633 67.7422 540.414 68.1931C540.711 68.3647 541.001 68.6401 541.242 68.9801Z" fill="white"/>
</mask>
<g mask="url(#mask7_329_661)">
<path fill-rule="evenodd" clip-rule="evenodd" d="M554.773 79.1479L555.883 80.7999L552.541 83.7689L551.43 82.1169L554.773 79.1479Z" fill="url(#paint48_linear_329_661)"/>
</g>
<mask id="mask8_329_661" style="mask-type:luminance" maskUnits="userSpaceOnUse" x="539" y="68" width="23" height="26">
<path d="M541.242 68.9801C541.885 69.8877 542.395 70.4501 542.771 70.6673C543.399 71.0296 544.397 70.8606 545.767 70.1603C546.235 69.9211 546.941 70.2482 547.486 70.9566L560.963 88.4629C561.376 89 561.627 89.6684 561.627 90.2314V92.3202C561.627 93.222 560.994 93.5876 560.213 93.1367L540.414 81.7057C539.633 81.2548 539 80.1581 539 79.2562V69.0097C539 68.1078 539.633 67.7422 540.414 68.1931C540.711 68.3647 541.001 68.6401 541.242 68.9801Z" fill="white"/>
</mask>
<g mask="url(#mask8_329_661)">
<path fill-rule="evenodd" clip-rule="evenodd" d="M539 78.4399L561.627 91.5039V93.9534L539 80.8894V78.4399Z" fill="url(#paint49_linear_329_661)"/>
</g>
<path fill-rule="evenodd" clip-rule="evenodd" d="M654.696 175.052L672.784 185.495C673.168 185.717 673.48 186.256 673.48 186.7V187.503C673.48 187.947 673.168 188.127 672.784 187.905L654.696 177.462C654.311 177.24 654 176.7 654 176.257V175.453C654 175.01 654.311 174.83 654.696 175.052Z" fill="url(#paint50_linear_329_661)"/>
<path opacity="0.4" fill-rule="evenodd" clip-rule="evenodd" d="M654.696 179.872L661.653 183.889C662.037 184.11 662.348 184.65 662.348 185.094V185.897C662.348 186.341 662.037 186.52 661.653 186.299L654.696 182.282C654.311 182.06 654 181.521 654 181.077V180.274C654 179.83 654.311 179.65 654.696 179.872Z" fill="url(#paint51_linear_329_661)"/>
<path opacity="0.4" fill-rule="evenodd" clip-rule="evenodd" d="M655.391 160.19L672.088 169.83C672.857 170.274 673.48 171.353 673.48 172.24V181.88C673.48 182.767 672.857 183.127 672.088 182.683L655.391 173.043C654.623 172.6 654 171.521 654 170.633V160.993C654 160.106 654.623 159.746 655.391 160.19Z" fill="url(#paint52_linear_329_661)"/>
<path fill-rule="evenodd" clip-rule="evenodd" d="M639 126.933L640.765 127.952C640.765 132.44 643.907 137.896 647.79 140.159L647.861 140.201L648.029 140.294C651.761 142.327 654.768 140.596 654.882 136.356L654.885 136.104L656.65 137.123C656.65 142.407 653.167 144.741 648.707 142.677L648.707 146.803L652.237 148.842C652.725 149.123 653.12 149.807 653.12 150.37C653.12 150.933 652.725 151.161 652.237 150.88L643.412 145.785C642.925 145.503 642.53 144.819 642.53 144.256C642.53 143.693 642.925 143.465 643.412 143.746L646.942 145.784L646.942 141.658C642.563 138.628 639.126 132.445 639.003 127.22L639 126.933Z" fill="url(#paint53_linear_329_661)"/>
<path opacity="0.3" fill-rule="evenodd" clip-rule="evenodd" d="M647.825 115.723C650.749 117.412 653.12 121.518 653.12 124.894V135.085C653.12 138.461 650.749 139.83 647.825 138.142C644.901 136.453 642.53 132.347 642.53 128.97V118.78C642.53 115.403 644.901 114.035 647.825 115.723Z" fill="url(#paint54_linear_329_661)"/>
<path fill-rule="evenodd" clip-rule="evenodd" d="M649.59 131.009L653.12 133.047V135.085L649.59 133.047C649.103 132.765 648.708 132.081 648.708 131.518C648.708 130.955 649.103 130.727 649.59 131.009ZM642.53 126.932L646.06 128.971C646.547 129.252 646.943 129.936 646.943 130.499C646.943 131.062 646.547 131.29 646.06 131.009L642.53 128.971V126.932ZM649.59 126.932L653.12 128.971V131.009L649.59 128.971C649.103 128.689 648.708 128.005 648.708 127.442C648.708 126.879 649.103 126.651 649.59 126.932ZM642.53 122.856L646.06 124.894C646.547 125.176 646.943 125.86 646.943 126.423C646.943 126.986 646.547 127.214 646.06 126.932L642.53 124.894V122.856ZM649.59 122.856L653.12 124.894V126.932L649.59 124.894C649.103 124.613 648.708 123.929 648.708 123.366C648.708 122.803 649.103 122.575 649.59 122.856ZM642.53 118.78L646.06 120.818C646.547 121.1 646.943 121.784 646.943 122.347C646.943 122.91 646.547 123.138 646.06 122.856L642.53 120.818V118.78Z" fill="url(#paint55_linear_329_661)"/>
<path opacity="0.5" d="M435.287 62.7471C435.61 62.5609 436.117 62.8252 436.468 63.3427L436.552 63.4773L442.905 74.4799C443.254 75.0849 443.254 75.7387 442.905 75.9404C442.582 76.1265 442.075 75.8623 441.724 75.3447L441.64 75.2102L435.287 64.2075C434.938 63.6026 434.938 62.9487 435.287 62.7471Z" fill="url(#paint56_linear_329_661)"/>
<path d="M428.179 37.5268C422.005 33.9622 417 36.8519 417 43.9811C417 51.1104 422.005 59.7795 428.179 63.3441C434.353 66.9087 439.358 64.019 439.358 56.8898C439.358 49.7605 434.353 41.0914 428.179 37.5268ZM428.179 39.5922C433.365 42.5865 437.57 49.8685 437.57 55.8571C437.57 61.8456 433.365 64.273 428.179 61.2787C422.993 58.2844 418.789 51.0024 418.789 45.0138C418.789 39.0253 422.993 36.5979 428.179 39.5922Z" fill="url(#paint57_linear_329_661)"/>
<path opacity="0.3" fill-rule="evenodd" clip-rule="evenodd" d="M435.48 0.338749L456.976 12.7494C458.346 13.5402 459.456 15.4636 459.456 17.0453V34.2293C459.456 35.811 458.346 36.4521 456.976 35.6613L435.48 23.2506C434.11 22.4598 433 20.5364 433 18.9547V1.77074C433 0.189006 434.11 -0.452119 435.48 0.338749Z" fill="url(#paint58_linear_329_661)"/>
<path fill-rule="evenodd" clip-rule="evenodd" d="M450.362 20.3869L443.748 21.3415V11.7949L450.362 20.3869Z" fill="url(#paint59_linear_329_661)"/>
<path opacity="0.3" fill-rule="evenodd" clip-rule="evenodd" d="M461.842 70.5192C467.83 73.9763 472.684 71.1738 472.684 64.2596C472.684 57.3454 467.83 48.9379 461.842 45.4808C455.854 42.0237 451 44.8262 451 51.7404C451 58.6546 455.854 67.0621 461.842 70.5192Z" fill="url(#paint60_linear_329_661)"/>
<path fill-rule="evenodd" clip-rule="evenodd" d="M457.099 54.479L462.519 57.608L462.52 55.2615L466.585 60.7386L462.52 61.5211L462.519 59.173L457.099 56.0439V54.479Z" fill="url(#paint61_linear_329_661)"/>
<path fill-rule="evenodd" clip-rule="evenodd" d="M35.8361 386.703C36.1381 386.901 36.479 387 36.8588 387C37.8606 387 42.1805 384.016 42.5518 383.194C42.9231 382.372 43.2243 381.914 42.6841 381.548C42.1438 381.183 38.9131 382.372 37.4604 383.194C36.6513 383.652 35.9934 384.396 35.4869 385.425C35.2641 385.878 35.4138 386.426 35.8361 386.703ZM30.5611 383.772C30.8632 383.97 31.2041 384.069 31.5838 384.069C32.5857 384.069 36.9056 381.085 37.2768 380.264C37.6481 379.442 37.9494 378.984 37.4091 378.618C36.8689 378.252 33.6381 379.442 32.1855 380.264C31.3763 380.721 30.7185 381.465 30.212 382.495C29.9891 382.948 30.1389 383.496 30.5611 383.772Z" fill="url(#paint62_linear_329_661)"/>
<path d="M29.9745 383.07C30.9314 383.366 31.663 383.237 32.1694 382.683C32.6758 382.13 32.8916 381.223 32.8167 379.962L35.5245 344.648L27 339.867C27.4285 340.072 27.8397 344.868 28.2335 354.254C28.4548 359.53 27.8942 364.857 28.2335 370.271C28.4096 373.083 28.99 377.349 29.9745 383.07Z" fill="url(#paint63_linear_329_661)"/>
<path d="M35.2494 386.001C36.2063 386.297 36.9379 386.168 37.4443 385.614C37.9507 385.06 38.1665 384.153 38.0916 382.893L38.8971 372.388L42.0922 344.4L32.2749 342.798C32.7034 343.003 33.1146 347.798 33.5084 357.185C33.7297 362.461 33.1691 367.787 33.5084 373.202C33.6845 376.014 34.2649 380.28 35.2494 386.001Z" fill="url(#paint64_linear_329_661)"/>
<path fill-rule="evenodd" clip-rule="evenodd" d="M40.3339 349.061C37.8467 349.91 30.1044 346.918 28.675 345.729C27.2457 344.539 27 343.829 27 338.981C27 334.133 28.0379 330.082 28.0379 326.404C28.0379 322.727 29.1154 317.755 31.1309 316.603C32.8635 315.613 34.6679 315.196 37.1305 316.603C39.6485 318.042 41.6331 318.503 42.4268 321.573C43.8256 326.982 42.0707 331.372 42.0707 336.281C42.0707 341.19 42.8211 348.212 40.3339 349.061Z" fill="url(#paint65_linear_329_661)"/>
<path d="M36.6711 318.181C37.8039 318.181 38.7221 317.656 38.7221 317.009C38.7221 316.362 37.8039 315.837 36.6711 315.837C35.5384 315.837 34.6201 316.362 34.6201 317.009C34.6201 317.656 35.5384 318.181 36.6711 318.181Z" fill="white"/>
<path fill-rule="evenodd" clip-rule="evenodd" d="M37.5987 317.432C37.9597 317.333 38.5977 314.992 38.9298 314.815C41.0394 313.687 41.8651 313.687 41.8944 311.255C41.8953 311.179 41.8958 311.102 41.8958 311.022C41.8958 310.58 41.7913 309.728 41.8958 309.283C41.9838 308.909 42.29 308.943 42.2338 308.555C42.193 308.273 41.624 307.937 41.5695 307.66C41.0085 304.811 39.7131 302.295 37.5987 302.295C34.658 302.295 32.2742 305.424 32.2742 309.283C32.2742 311.802 35.4339 315.828 35.3272 316.627C35.2206 317.427 36.6004 317.705 37.5987 317.432Z" fill="url(#paint66_linear_329_661)"/>
<path fill-rule="evenodd" clip-rule="evenodd" d="M37.2574 299C38.8832 299 39.7098 303.029 39.3908 303.029C39.0719 303.029 38.8158 304.412 38.175 305.483C37.7613 306.175 40.2859 308.621 39.8824 308.833C39.6297 308.967 39.1165 308.104 38.4489 308.104C36.5647 308.104 37.6398 310.586 39.1694 310.586C39.2859 310.586 39.1647 312.488 38.175 313.154C37.1133 313.87 36.0316 314.078 35.2231 314.078C34.4146 314.078 32.887 314.461 31.2615 311.674C29.6359 308.887 28.704 307.996 29.3024 304.862C30.5711 301.81 35.6316 299 37.2574 299Z" fill="url(#paint67_linear_329_661)"/>
<path fill-rule="evenodd" clip-rule="evenodd" d="M55.6567 345.596C56.5533 346.524 56.2757 347.021 55.6567 347.619C55.0377 348.217 54.6666 348.549 52.8309 346.855C50.9951 345.161 51.7908 344.854 52.4098 344.257C52.6131 344.06 52.9363 344.037 53.3106 344.128C53.2948 344.06 53.2928 343.989 53.3051 343.92C53.3801 343.495 53.822 343.643 54.4595 343.755C55.0971 343.868 55.6889 343.902 55.6139 344.327C55.5605 344.63 55.252 344.845 54.8484 344.904C55.1501 345.121 55.4301 345.361 55.6567 345.596Z" fill="url(#paint68_linear_329_661)"/>
<path fill-rule="evenodd" clip-rule="evenodd" d="M53.4086 344.671C52.7533 345.404 51.5743 345.329 50.8849 344.64L41.9141 336.286C41.2246 335.597 41.3152 334.388 42.1163 333.587C42.9174 332.786 44.1257 332.696 44.8152 333.385L53.1549 342.263C53.8443 342.952 54.0639 343.938 53.4086 344.671Z" fill="url(#paint69_linear_329_661)"/>
<path fill-rule="evenodd" clip-rule="evenodd" d="M43.1179 320.553C44.7094 321.813 45.1693 323.009 45.1693 324.958C45.1693 326.258 45.1693 329.464 45.1693 334.577C45.1693 335.574 44.2509 336.383 43.1179 336.383C41.985 336.383 41.0666 335.574 41.0666 334.577C40.6758 331.568 40.4805 329.31 40.4805 327.806C40.4805 326.078 40.6758 323.487 41.0666 320.032C41.0666 319.034 41.5265 319.294 43.1179 320.553Z" fill="url(#paint70_linear_329_661)"/>
<path fill-rule="evenodd" clip-rule="evenodd" d="M243.556 433.388C244.79 432.939 245.137 433.403 245.437 434.226C245.736 435.049 245.891 435.531 243.556 436.537C241.504 437.421 241.29 436.859 241.065 436.151L241.017 436.003C241.001 435.953 240.984 435.903 240.966 435.853C240.868 435.583 240.98 435.273 241.219 434.962C241.149 434.948 241.083 434.921 241.023 434.881C240.659 434.635 240.98 434.286 241.348 433.739C241.717 433.193 241.994 432.657 242.358 432.903C242.617 433.078 242.69 433.455 242.577 433.854C242.904 433.663 243.243 433.502 243.556 433.388Z" fill="url(#paint71_linear_329_661)"/>
<path fill-rule="evenodd" clip-rule="evenodd" d="M241.767 435.274C242.315 436.112 241.931 437.251 241.071 437.747L230.494 444.367C229.635 444.863 228.47 444.455 227.894 443.457C227.317 442.458 227.547 441.246 228.406 440.75L239.332 434.889C240.192 434.393 241.218 434.437 241.767 435.274Z" fill="url(#paint72_linear_329_661)"/>
<path fill-rule="evenodd" clip-rule="evenodd" d="M235.37 501.678C235.684 501.892 236.04 501.999 236.438 501.999C237.458 501.999 241.855 498.961 242.233 498.125C242.611 497.288 242.918 496.822 242.368 496.45C241.818 496.077 238.53 497.288 237.051 498.125C236.223 498.593 235.551 499.356 235.034 500.412C234.816 500.859 234.959 501.399 235.37 501.678ZM230.001 498.695C230.315 498.909 230.671 499.016 231.069 499.016C232.089 499.016 236.486 495.978 236.864 495.142C237.242 494.305 237.549 493.839 236.999 493.467C236.449 493.094 233.16 494.305 231.682 495.142C230.854 495.61 230.181 496.373 229.665 497.429C229.446 497.876 229.589 498.416 230.001 498.695Z" fill="url(#paint73_linear_329_661)"/>
<path d="M229.431 497.998C230.405 498.3 231.15 498.168 231.665 497.605C232.18 497.041 232.4 496.118 232.324 494.835L235.08 458.889L226.403 454.022C226.839 454.231 227.258 459.112 227.659 468.667C227.884 474.038 227.313 479.459 227.659 484.971C227.838 487.833 228.429 492.175 229.431 497.998Z" fill="url(#paint74_linear_329_661)"/>
<path d="M234.8 500.982C235.774 501.283 236.519 501.152 237.034 500.588C237.55 500.025 237.769 499.101 237.693 497.819L238.513 487.126L241.765 458.637L231.772 457.006C232.209 457.214 232.627 462.096 233.028 471.65C233.253 477.021 232.683 482.442 233.028 487.954C233.207 490.816 233.798 495.159 234.8 500.982Z" fill="url(#paint75_linear_329_661)"/>
<path fill-rule="evenodd" clip-rule="evenodd" d="M240.135 466.306C236.331 468.762 229.563 463.586 228.108 462.375C226.653 461.164 225.302 460.108 226.403 455.507C227.503 450.906 227.459 444.062 227.459 440.319C227.459 436.576 228.556 431.514 230.608 430.342C232.371 429.334 234.208 428.909 236.714 430.342C239.278 431.806 241.298 432.276 242.106 435.4C243.529 440.906 241.743 445.375 241.743 450.372C241.743 455.369 243.939 463.849 240.135 466.306Z" fill="url(#paint76_linear_329_661)"/>
<path d="M236.246 431.949C237.399 431.949 238.334 431.414 238.334 430.755C238.334 430.097 237.399 429.562 236.246 429.562C235.093 429.562 234.158 430.097 234.158 430.755C234.158 431.414 235.093 431.949 236.246 431.949Z" fill="white"/>
<path fill-rule="evenodd" clip-rule="evenodd" d="M237.192 431.187C237.559 431.087 238.209 428.704 238.547 428.523C240.694 427.375 241.535 427.375 241.564 424.899C241.565 424.823 241.566 424.744 241.566 424.662C241.566 424.212 241.459 423.345 241.566 422.893C241.655 422.512 241.967 422.546 241.91 422.151C241.868 421.865 241.289 421.523 241.234 421.241C240.663 418.341 239.344 415.779 237.192 415.779C234.199 415.779 231.772 418.964 231.772 422.893C231.772 425.457 234.988 429.554 234.88 430.368C234.771 431.182 236.176 431.465 237.192 431.187Z" fill="url(#paint77_linear_329_661)"/>
<path fill-rule="evenodd" clip-rule="evenodd" d="M235.729 414C238.974 414 239.341 416.527 239.016 416.527C238.691 416.527 238.747 418.029 238.094 419.119C237.442 420.209 239.399 421.815 238.335 421.815C237.27 421.815 237.234 424.218 238.791 424.218C238.909 424.218 238.786 426.154 237.779 426.833C236.698 427.561 235.597 427.773 234.774 427.773C233.951 427.773 232.22 427.773 231.772 424.665C231.324 421.557 228.89 422.015 229.499 418.825C230.108 415.635 232.484 414 235.729 414Z" fill="url(#paint78_linear_329_661)"/>
<path d="M229.982 421.808C231.959 421.808 233.562 420.206 233.562 418.228C233.562 416.251 231.959 414.648 229.982 414.648C228.005 414.648 226.402 416.251 226.402 418.228C226.402 420.206 228.005 421.808 229.982 421.808Z" fill="url(#paint79_radial_329_661)"/>
<path fill-rule="evenodd" clip-rule="evenodd" d="M256.68 439.355C257.915 438.906 258.262 439.37 258.562 440.193C258.861 441.016 259.016 441.498 256.681 442.504C254.629 443.388 254.415 442.826 254.189 442.118L254.142 441.97C254.126 441.92 254.109 441.87 254.091 441.82C253.992 441.55 254.105 441.24 254.344 440.929C254.274 440.915 254.208 440.888 254.148 440.848C253.784 440.602 254.105 440.253 254.473 439.706C254.842 439.16 255.118 438.624 255.483 438.869C255.742 439.045 255.815 439.421 255.702 439.821C256.029 439.63 256.368 439.469 256.68 439.355Z" fill="url(#paint80_linear_329_661)"/>
<path fill-rule="evenodd" clip-rule="evenodd" d="M254.892 441.241C255.44 442.078 255.056 443.218 254.196 443.714L243.619 450.333C242.76 450.83 241.595 450.422 241.019 449.423C240.442 448.425 240.672 447.213 241.531 446.717L252.457 440.856C253.317 440.36 254.343 440.403 254.892 441.241Z" fill="url(#paint81_linear_329_661)"/>
<path fill-rule="evenodd" clip-rule="evenodd" d="M242.809 434.365C244.429 435.647 244.897 436.562 244.897 437.577V448.639C244.897 449.654 243.962 450.477 242.809 450.477C241.655 450.477 240.721 449.654 240.721 448.639C240.323 445.564 240.124 443.257 240.124 441.719C240.124 439.967 240.323 437.338 240.721 433.833C240.721 432.818 241.189 433.082 242.809 434.365Z" fill="url(#paint82_linear_329_661)"/>
<path fill-rule="evenodd" clip-rule="evenodd" d="M128.023 444.671C128.342 444.891 128.704 445.001 129.11 445.001C130.137 445.001 134.567 441.941 134.948 441.098C135.328 440.256 135.637 439.786 135.083 439.411C134.529 439.036 131.216 440.256 129.727 441.098C128.891 441.571 128.213 442.341 127.692 443.409C127.475 443.854 127.615 444.39 128.023 444.671ZM122.613 441.666C122.932 441.886 123.295 441.996 123.701 441.996C124.728 441.996 129.158 438.936 129.538 438.093C129.919 437.251 130.228 436.781 129.674 436.406C129.12 436.031 125.807 437.251 124.317 438.093C123.482 438.566 122.803 439.336 122.283 440.404C122.066 440.849 122.206 441.385 122.613 441.666Z" fill="url(#paint83_linear_329_661)"/>
<path d="M122.05 440.971C123.031 441.275 123.782 441.143 124.301 440.575C124.82 440.007 125.042 439.077 124.965 437.785L127.741 401.572L119.601 402.679C119.64 398.883 119.861 401.797 120.265 411.422C120.492 416.833 119.917 422.294 120.265 427.847C120.446 430.73 121.041 435.105 122.05 440.971Z" fill="url(#paint84_linear_329_661)"/>
<path d="M127.459 443.976C128.441 444.28 129.191 444.147 129.71 443.58C130.229 443.012 130.451 442.082 130.374 440.789L131.2 430.017L134.476 401.317L124.409 399.674C124.849 399.884 125.27 404.802 125.674 414.427C125.901 419.837 125.326 425.299 125.674 430.852C125.855 433.735 126.45 438.11 127.459 443.976Z" fill="url(#paint85_linear_329_661)"/>
<path fill-rule="evenodd" clip-rule="evenodd" d="M132.673 412.106C130.123 412.977 122.183 409.909 120.718 408.689C119.252 407.469 119 406.742 119 401.77C119 396.798 120.064 392.644 120.064 388.873C120.064 385.102 121.169 380.003 123.236 378.822C125.013 377.807 126.863 377.379 129.388 378.822C131.97 380.298 134.005 380.771 134.819 383.918C136.254 389.465 134.454 393.967 134.454 399.001C134.454 404.035 135.224 411.236 132.673 412.106Z" fill="url(#paint86_linear_329_661)"/>
<path d="M128.917 380.44C130.079 380.44 131.021 379.902 131.021 379.238C131.021 378.574 130.079 378.036 128.917 378.036C127.755 378.036 126.813 378.574 126.813 379.238C126.813 379.902 127.755 380.44 128.917 380.44Z" fill="white"/>
<path fill-rule="evenodd" clip-rule="evenodd" d="M129.869 379.673C130.239 379.572 130.893 377.171 131.234 376.989C133.397 375.832 134.244 375.832 134.274 373.338C134.275 373.261 134.275 373.181 134.275 373.099C134.275 372.646 134.168 371.773 134.275 371.317C134.365 370.933 134.679 370.967 134.622 370.569C134.58 370.281 133.997 369.936 133.941 369.652C133.365 366.731 132.037 364.15 129.869 364.15C126.853 364.15 124.409 367.359 124.409 371.317C124.409 373.9 127.649 378.028 127.539 378.847C127.43 379.667 128.845 379.952 129.869 379.673Z" fill="url(#paint87_linear_329_661)"/>
<path fill-rule="evenodd" clip-rule="evenodd" d="M130.855 358.985C132.872 358.2 133.437 358.985 133.437 361.257C133.437 363.051 132.722 364.611 131.706 364.903C130.691 365.196 131.117 366.322 130.46 367.42C130.035 368.129 132.624 370.637 132.211 370.855C131.951 370.992 131.425 370.107 130.741 370.107C128.808 370.107 129.911 372.652 131.479 372.652C131.599 372.652 131.475 374.602 130.46 375.286C129.371 376.02 128.262 376.233 127.433 376.233C126.604 376.233 125.037 376.626 123.37 373.768C121.703 370.911 118.987 370.633 119.601 367.42C121.237 361.498 124.409 361.498 130.855 358.985Z" fill="url(#paint88_linear_329_661)"/>
<path fill-rule="evenodd" clip-rule="evenodd" d="M132.04 384.559C131.249 382.888 132.411 381.735 134.107 380.676C135.237 379.969 137.852 378.462 141.951 376.152C142.818 375.61 144.021 375.97 144.636 376.955C145.252 377.94 145.048 379.178 144.181 379.72C143.731 380.145 142.884 380.747 141.64 381.525C139.29 382.993 138.932 383.005 136.52 384.403C134.109 385.801 132.83 386.231 132.04 384.559Z" fill="url(#paint89_linear_329_661)"/>
<path fill-rule="evenodd" clip-rule="evenodd" d="M147.788 362.054C148.305 360.836 148.886 360.899 149.698 361.244C150.51 361.589 150.972 361.806 150.109 364.217C149.245 366.629 148.637 366.001 147.825 365.656C147.558 365.543 147.407 365.247 147.342 364.857C147.284 364.899 147.219 364.929 147.148 364.946C146.717 365.045 146.68 364.569 146.53 363.922C146.381 363.275 146.176 362.703 146.607 362.603C146.915 362.532 147.243 362.738 147.459 363.096C147.543 362.724 147.657 362.363 147.788 362.054Z" fill="url(#paint90_linear_329_661)"/>
<path fill-rule="evenodd" clip-rule="evenodd" d="M148.269 364.539C149.223 364.864 149.625 366.007 149.25 366.934L144.959 378.749C144.585 379.676 143.408 380.074 142.331 379.639C141.253 379.204 140.684 378.1 141.058 377.173L146.097 365.743C146.472 364.816 147.314 364.214 148.269 364.539Z" fill="url(#paint91_linear_329_661)"/>
<g opacity="0.25" filter="url(#filter8_f_329_661)">
<path fill-rule="evenodd" clip-rule="evenodd" d="M688.356 343.869C708.831 332.044 742.336 332.044 762.816 343.869C783.291 355.689 783.291 375.034 762.816 386.859C742.336 398.684 708.831 398.684 688.356 386.859C667.881 375.034 667.881 355.689 688.356 343.869Z" fill="black"/>
</g>
<path d="M673.004 355.358C673.004 350.163 673.004 346.694 673.004 344.95H778.177C778.177 346.694 778.177 350.163 778.177 355.358C778.177 363.149 773.058 370.941 762.821 376.853C742.341 388.678 708.836 388.678 688.361 376.853C678.124 370.941 673.004 363.149 673.004 355.358Z" fill="url(#paint92_linear_329_661)"/>
<path d="M688.356 323.869C708.831 312.044 742.336 312.044 762.816 323.869C783.291 335.689 783.291 355.034 762.816 366.859C742.336 378.684 708.831 378.684 688.356 366.859C667.881 355.034 667.881 335.689 688.356 323.869Z" fill="url(#paint93_linear_329_661)"/>
<path opacity="0.15" d="M725.586 325.86C734.384 325.86 743.184 327.78 749.86 331.635C753.096 333.503 755.542 335.658 757.191 337.967C758.876 340.326 759.725 342.841 759.725 345.359C759.725 350.351 756.397 355.31 749.86 359.086C743.184 362.94 734.384 364.86 725.586 364.86C716.789 364.86 707.989 362.94 701.315 359.086C694.778 355.31 691.45 350.351 691.45 345.359C691.45 342.841 692.299 340.326 693.984 337.967C695.633 335.658 698.079 333.503 701.315 331.635C707.989 327.78 716.789 325.86 725.586 325.86Z" stroke="#0452E3"/>
<path opacity="0.5" d="M750.163 263.541C756.908 267.435 760.28 272.569 760.28 277.702V345.615C760.135 350.638 756.764 355.637 750.163 359.448C736.675 367.236 714.603 367.236 701.116 359.448C694.515 355.637 691.145 350.638 691.005 345.615L691 345.615V277.702C691 272.569 694.372 267.435 701.116 263.541C714.603 255.753 736.675 255.753 750.163 263.541Z" fill="url(#paint94_linear_329_661)"/>
<path opacity="0.3" fill-rule="evenodd" clip-rule="evenodd" d="M708.489 304.885C717.043 309.823 723.977 305.82 723.977 295.942C723.977 286.065 717.043 274.054 708.489 269.115C699.934 264.177 693 268.18 693 278.058C693 287.935 699.934 299.946 708.489 304.885Z" fill="url(#paint95_linear_329_661)"/>
<path fill-rule="evenodd" clip-rule="evenodd" d="M713.651 289.981L705.907 291.471V279.548L713.651 289.981Z" fill="url(#paint96_linear_329_661)"/>
<path fill-rule="evenodd" clip-rule="evenodd" d="M734.696 291.052L752.784 301.495C753.168 301.717 753.48 302.257 753.48 302.7V303.504C753.48 303.947 753.168 304.127 752.784 303.905L734.696 293.462C734.311 293.24 734 292.701 734 292.257V291.454C734 291.01 734.311 290.83 734.696 291.052Z" fill="url(#paint97_linear_329_661)"/>
<path opacity="0.4" fill-rule="evenodd" clip-rule="evenodd" d="M734.696 295.871L741.653 299.888C742.037 300.11 742.348 300.649 742.348 301.093V301.896C742.348 302.34 742.037 302.52 741.653 302.298L734.696 298.281C734.311 298.06 734 297.52 734 297.076V296.273C734 295.829 734.311 295.65 734.696 295.871Z" fill="url(#paint98_linear_329_661)"/>
<path opacity="0.4" fill-rule="evenodd" clip-rule="evenodd" d="M735.391 276.19L752.088 285.83C752.857 286.274 753.48 287.353 753.48 288.24V297.88C753.48 298.767 752.857 299.127 752.088 298.683L735.391 289.043C734.623 288.6 734 287.521 734 286.633V276.993C734 276.106 734.623 275.746 735.391 276.19Z" fill="url(#paint99_linear_329_661)"/>
<path fill-rule="evenodd" clip-rule="evenodd" d="M719 242.933L720.765 243.952C720.765 248.44 723.907 253.896 727.79 256.159L727.861 256.201L728.029 256.294C731.761 258.327 734.768 256.596 734.882 252.356L734.885 252.104L736.65 253.123C736.65 258.407 733.167 260.741 728.707 258.677L728.707 262.803L732.237 264.842C732.725 265.123 733.12 265.807 733.12 266.37C733.12 266.933 732.725 267.161 732.237 266.88L723.412 261.785C722.925 261.503 722.53 260.819 722.53 260.256C722.53 259.693 722.925 259.465 723.412 259.746L726.942 261.784L726.942 257.658C722.563 254.628 719.126 248.445 719.003 243.22L719 242.933Z" fill="url(#paint100_linear_329_661)"/>
<path opacity="0.3" fill-rule="evenodd" clip-rule="evenodd" d="M727.825 231.723C730.749 233.412 733.12 237.518 733.12 240.894V251.085C733.12 254.461 730.749 255.83 727.825 254.142C724.901 252.453 722.53 248.347 722.53 244.97V234.78C722.53 231.403 724.901 230.035 727.825 231.723Z" fill="url(#paint101_linear_329_661)"/>
<path fill-rule="evenodd" clip-rule="evenodd" d="M729.59 247.009L733.12 249.047V251.085L729.59 249.047C729.103 248.765 728.708 248.081 728.708 247.518C728.708 246.955 729.103 246.727 729.59 247.009ZM722.53 242.932L726.06 244.971C726.547 245.252 726.943 245.936 726.943 246.499C726.943 247.062 726.547 247.29 726.06 247.009L722.53 244.971V242.932ZM729.59 242.932L733.12 244.971V247.009L729.59 244.971C729.103 244.689 728.708 244.005 728.708 243.442C728.708 242.879 729.103 242.651 729.59 242.932ZM722.53 238.856L726.06 240.894C726.547 241.176 726.943 241.86 726.943 242.423C726.943 242.986 726.547 243.214 726.06 242.932L722.53 240.894V238.856ZM729.59 238.856L733.12 240.894V242.932L729.59 240.894C729.103 240.613 728.708 239.929 728.708 239.366C728.708 238.803 729.103 238.575 729.59 238.856ZM722.53 234.78L726.06 236.818C726.547 237.1 726.943 237.784 726.943 238.347C726.943 238.91 726.547 239.138 726.06 238.856L722.53 236.818V234.78Z" fill="url(#paint102_linear_329_661)"/>
<defs>
<filter id="filter0_f_329_661" x="0" y="297" width="149.17" height="104.721" filterUnits="userSpaceOnUse" color-interpolation-filters="sRGB">
<feFlood flood-opacity="0" result="BackgroundImageFix"/>
<feBlend mode="normal" in="SourceGraphic" in2="BackgroundImageFix" result="shape"/>
<feGaussianBlur stdDeviation="11" result="effect1_foregroundBlur_329_661"/>
</filter>
<filter id="filter1_f_329_661" x="99" y="355" width="149.17" height="104.721" filterUnits="userSpaceOnUse" color-interpolation-filters="sRGB">
<feFlood flood-opacity="0" result="BackgroundImageFix"/>
<feBlend mode="normal" in="SourceGraphic" in2="BackgroundImageFix" result="shape"/>
<feGaussianBlur stdDeviation="11" result="effect1_foregroundBlur_329_661"/>
</filter>
<filter id="filter2_f_329_661" x="199" y="412" width="149.17" height="104.721" filterUnits="userSpaceOnUse" color-interpolation-filters="sRGB">
<feFlood flood-opacity="0" result="BackgroundImageFix"/>
<feBlend mode="normal" in="SourceGraphic" in2="BackgroundImageFix" result="shape"/>
<feGaussianBlur stdDeviation="11" result="effect1_foregroundBlur_329_661"/>
</filter>
<filter id="filter3_f_329_661" x="571" y="197" width="149.173" height="104.728" filterUnits="userSpaceOnUse" color-interpolation-filters="sRGB">
<feFlood flood-opacity="0" result="BackgroundImageFix"/>
<feBlend mode="normal" in="SourceGraphic" in2="BackgroundImageFix" result="shape"/>
<feGaussianBlur stdDeviation="11" result="effect1_foregroundBlur_329_661"/>
</filter>
<filter id="filter4_f_329_661" x="472" y="139" width="149.173" height="104.728" filterUnits="userSpaceOnUse" color-interpolation-filters="sRGB">
<feFlood flood-opacity="0" result="BackgroundImageFix"/>
<feBlend mode="normal" in="SourceGraphic" in2="BackgroundImageFix" result="shape"/>
<feGaussianBlur stdDeviation="11" result="effect1_foregroundBlur_329_661"/>
</filter>
<filter id="filter5_f_329_661" x="372" y="82" width="149.173" height="104.728" filterUnits="userSpaceOnUse" color-interpolation-filters="sRGB">
<feFlood flood-opacity="0" result="BackgroundImageFix"/>
<feBlend mode="normal" in="SourceGraphic" in2="BackgroundImageFix" result="shape"/>
<feGaussianBlur stdDeviation="11" result="effect1_foregroundBlur_329_661"/>
</filter>
<filter id="filter6_f_329_661" x="250.366" y="226.997" width="219.287" height="145.213" filterUnits="userSpaceOnUse" color-interpolation-filters="sRGB">
<feFlood flood-opacity="0" result="BackgroundImageFix"/>
<feBlend mode="normal" in="SourceGraphic" in2="BackgroundImageFix" result="shape"/>
<feGaussianBlur stdDeviation="11" result="effect1_foregroundBlur_329_661"/>
</filter>
<filter id="filter7_f_329_661" x="323.872" y="248.89" width="70.2566" height="53.2207" filterUnits="userSpaceOnUse" color-interpolation-filters="sRGB">
<feFlood flood-opacity="0" result="BackgroundImageFix"/>
<feBlend mode="normal" in="SourceGraphic" in2="BackgroundImageFix" result="shape"/>
<feGaussianBlur stdDeviation="8" result="effect1_foregroundBlur_329_661"/>
</filter>
<filter id="filter8_f_329_661" x="651" y="313" width="149.173" height="104.728" filterUnits="userSpaceOnUse" color-interpolation-filters="sRGB">
<feFlood flood-opacity="0" result="BackgroundImageFix"/>
<feBlend mode="normal" in="SourceGraphic" in2="BackgroundImageFix" result="shape"/>
<feGaussianBlur stdDeviation="11" result="effect1_foregroundBlur_329_661"/>
</filter>
<linearGradient id="paint0_linear_329_661" x1="173.863" y1="5720.98" x2="9795.83" y2="247.264" gradientUnits="userSpaceOnUse">
<stop stop-color="#80E6D3"/>
<stop offset="1" stop-color="#A9E5CF"/>
</linearGradient>
<linearGradient id="paint1_linear_329_661" x1="74.5855" y1="2852.88" x2="16200.9" y2="-527.191" gradientUnits="userSpaceOnUse">
<stop stop-color="#80E6D3"/>
<stop offset="1" stop-color="#A9E5CF"/>
</linearGradient>
<linearGradient id="paint2_linear_329_661" x1="384.928" y1="5600.26" x2="10009.6" y2="125.022" gradientUnits="userSpaceOnUse">
<stop stop-color="#80E6D3"/>
<stop offset="1" stop-color="#A9E5CF"/>
</linearGradient>
<linearGradient id="paint3_linear_329_661" x1="2958.22" y1="10263.8" x2="7928.5" y2="2373.48" gradientUnits="userSpaceOnUse">
<stop stop-color="#80E6D3"/>
<stop offset="1" stop-color="#A9E5CF"/>
</linearGradient>
<linearGradient id="paint4_linear_329_661" x1="409.754" y1="2803.04" x2="16540.5" y2="-577.975" gradientUnits="userSpaceOnUse">
<stop stop-color="#80E6D3"/>
<stop offset="1" stop-color="#A9E5CF"/>
</linearGradient>
<linearGradient id="paint5_linear_329_661" x1="938.22" y1="2837.87" x2="-15458" y2="1165.74" gradientUnits="userSpaceOnUse">
<stop stop-color="#80E6D3"/>
<stop offset="1" stop-color="#A9E5CF"/>
</linearGradient>
<linearGradient id="paint6_linear_329_661" x1="2848.14" y1="10454.9" x2="7953.76" y2="2571.79" gradientUnits="userSpaceOnUse">
<stop stop-color="#80E6D3"/>
<stop offset="1" stop-color="#A9E5CF"/>
</linearGradient>
<linearGradient id="paint7_linear_329_661" x1="5651.09" y1="6341.32" x2="31038.6" y2="22239.2" gradientUnits="userSpaceOnUse">
<stop stop-color="#7EABFF"/>
<stop offset="1" stop-color="#014FE0"/>
</linearGradient>
<linearGradient id="paint8_linear_329_661" x1="4788.41" y1="5356.42" x2="26036.6" y2="18662.2" gradientUnits="userSpaceOnUse">
<stop stop-color="#7EABFF"/>
<stop offset="1" stop-color="#014FE0"/>
</linearGradient>
<linearGradient id="paint9_linear_329_661" x1="3925.74" y1="4371.52" x2="21034.7" y2="15085.3" gradientUnits="userSpaceOnUse">
<stop stop-color="#7EABFF"/>
<stop offset="1" stop-color="#014FE0"/>
</linearGradient>
<linearGradient id="paint10_linear_329_661" x1="22" y1="3344.17" x2="10539.4" y2="3344.17" gradientUnits="userSpaceOnUse">
<stop stop-color="#014FE0"/>
<stop offset="0.51359" stop-color="#85B0FF"/>
<stop offset="1" stop-color="#0047CC"/>
</linearGradient>
<linearGradient id="paint11_linear_329_661" x1="22" y1="3335.17" x2="10539.4" y2="3335.17" gradientUnits="userSpaceOnUse">
<stop stop-color="#EDF4FF"/>
<stop offset="1" stop-color="#E5EEFF"/>
</linearGradient>
<linearGradient id="paint12_linear_329_661" x1="121" y1="3402.17" x2="10638.4" y2="3402.17" gradientUnits="userSpaceOnUse">
<stop stop-color="#014FE0"/>
<stop offset="0.51359" stop-color="#85B0FF"/>
<stop offset="1" stop-color="#0047CC"/>
</linearGradient>
<linearGradient id="paint13_linear_329_661" x1="121" y1="3393.17" x2="10638.4" y2="3393.17" gradientUnits="userSpaceOnUse">
<stop stop-color="#EDF4FF"/>
<stop offset="1" stop-color="#E5EEFF"/>
</linearGradient>
<linearGradient id="paint14_linear_329_661" x1="221" y1="3459.17" x2="10738.4" y2="3459.17" gradientUnits="userSpaceOnUse">
<stop stop-color="#014FE0"/>
<stop offset="0.51359" stop-color="#85B0FF"/>
<stop offset="1" stop-color="#0047CC"/>
</linearGradient>
<linearGradient id="paint15_linear_329_661" x1="221" y1="3450.17" x2="10738.4" y2="3450.17" gradientUnits="userSpaceOnUse">
<stop stop-color="#EDF4FF"/>
<stop offset="1" stop-color="#E5EEFF"/>
</linearGradient>
<linearGradient id="paint16_linear_329_661" x1="1549.7" y1="4465.58" x2="-1274.21" y2="1677.89" gradientUnits="userSpaceOnUse">
<stop stop-color="#3BC4A1"/>
<stop offset="0.51359" stop-color="#B1E7D1"/>
<stop offset="1" stop-color="#00B8B8"/>
</linearGradient>
<linearGradient id="paint17_linear_329_661" x1="973.854" y1="4964.59" x2="2478.34" y2="3921.04" gradientUnits="userSpaceOnUse">
<stop stop-color="#112B24"/>
<stop offset="0.58559" stop-color="#276353"/>
<stop offset="1" stop-color="#112B24"/>
</linearGradient>
<linearGradient id="paint18_linear_329_661" x1="1942.54" y1="5276.17" x2="-1686.94" y2="2025.63" gradientUnits="userSpaceOnUse">
<stop stop-color="#3BC4A1"/>
<stop offset="0.51359" stop-color="#B1E7D1"/>
<stop offset="1" stop-color="#00B8B8"/>
</linearGradient>
<linearGradient id="paint19_linear_329_661" x1="1040.3" y1="5932.89" x2="3043.51" y2="4709.79" gradientUnits="userSpaceOnUse">
<stop stop-color="#112B24"/>
<stop offset="0.58559" stop-color="#276353"/>
<stop offset="1" stop-color="#112B24"/>
</linearGradient>
<linearGradient id="paint20_linear_329_661" x1="39.9995" y1="2212.73" x2="6627.77" y2="2212.73" gradientUnits="userSpaceOnUse">
<stop stop-color="#014FE0"/>
<stop offset="0.51359" stop-color="#85B0FF"/>
<stop offset="1" stop-color="#0047CC"/>
</linearGradient>
<linearGradient id="paint21_linear_329_661" x1="3411.34" y1="4286.24" x2="-2414.89" y2="1227.79" gradientUnits="userSpaceOnUse">
<stop stop-color="#3BC4A1"/>
<stop offset="0.51359" stop-color="#B1E7D1"/>
<stop offset="1" stop-color="#00B8B8"/>
</linearGradient>
<linearGradient id="paint22_linear_329_661" x1="-189.002" y1="4865.79" x2="4117.99" y2="3383.98" gradientUnits="userSpaceOnUse">
<stop stop-color="#112B24"/>
<stop offset="0.58559" stop-color="#276353"/>
<stop offset="1" stop-color="#112B24"/>
</linearGradient>
<linearGradient id="paint23_linear_329_661" x1="40" y1="2211.55" x2="6627.77" y2="2211.55" gradientUnits="userSpaceOnUse">
<stop stop-color="#C4EEE3"/>
<stop offset="1" stop-color="#CCFFFF"/>
</linearGradient>
<linearGradient id="paint24_linear_329_661" x1="494.004" y1="2209.54" x2="11011.3" y2="2209.54" gradientUnits="userSpaceOnUse">
<stop stop-color="#014FE0"/>
<stop offset="0.51359" stop-color="#85B0FF"/>
<stop offset="1" stop-color="#0047CC"/>
</linearGradient>
<linearGradient id="paint25_linear_329_661" x1="494" y1="3177.38" x2="11011.3" y2="3177.38" gradientUnits="userSpaceOnUse">
<stop stop-color="#EDF4FF"/>
<stop offset="1" stop-color="#E5EEFF"/>
</linearGradient>
<linearGradient id="paint26_linear_329_661" x1="3904.23" y1="1819.42" x2="4077.29" y2="10840.7" gradientUnits="userSpaceOnUse">
<stop stop-color="#E0EBFF" stop-opacity="0"/>
<stop offset="1" stop-color="#E0EBFF" stop-opacity="0.484"/>
</linearGradient>
<linearGradient id="paint27_linear_329_661" x1="593.004" y1="2267.54" x2="11110.3" y2="2267.54" gradientUnits="userSpaceOnUse">
<stop stop-color="#014FE0"/>
<stop offset="0.51359" stop-color="#85B0FF"/>
<stop offset="1" stop-color="#0047CC"/>
</linearGradient>
<linearGradient id="paint28_linear_329_661" x1="593" y1="3235.38" x2="11110.3" y2="3235.38" gradientUnits="userSpaceOnUse">
<stop stop-color="#EDF4FF"/>
<stop offset="1" stop-color="#E5EEFF"/>
</linearGradient>
<linearGradient id="paint29_linear_329_661" x1="4003.23" y1="1877.33" x2="4176.29" y2="10898.7" gradientUnits="userSpaceOnUse">
<stop stop-color="#E0EBFF" stop-opacity="0"/>
<stop offset="1" stop-color="#E0EBFF" stop-opacity="0.484"/>
</linearGradient>
<linearGradient id="paint30_linear_329_661" x1="394.004" y1="2152.54" x2="10911.3" y2="2152.54" gradientUnits="userSpaceOnUse">
<stop stop-color="#014FE0"/>
<stop offset="0.51359" stop-color="#85B0FF"/>
<stop offset="1" stop-color="#0047CC"/>
</linearGradient>
<linearGradient id="paint31_linear_329_661" x1="394" y1="3120.38" x2="10911.3" y2="3120.38" gradientUnits="userSpaceOnUse">
<stop stop-color="#EDF4FF"/>
<stop offset="1" stop-color="#E5EEFF"/>
</linearGradient>
<linearGradient id="paint32_linear_329_661" x1="3804.23" y1="1762.42" x2="3977.28" y2="10783.8" gradientUnits="userSpaceOnUse">
<stop stop-color="#E0EBFF" stop-opacity="0"/>
<stop offset="1" stop-color="#E0EBFF" stop-opacity="0.484"/>
</linearGradient>
<linearGradient id="paint33_linear_329_661" x1="272.366" y1="5299.63" x2="17801" y2="5299.63" gradientUnits="userSpaceOnUse">
<stop stop-color="#014FE0"/>
<stop offset="0.51359" stop-color="#85B0FF"/>
<stop offset="1" stop-color="#0047CC"/>
</linearGradient>
<linearGradient id="paint34_linear_329_661" x1="272.366" y1="5289.63" x2="17801" y2="5289.63" gradientUnits="userSpaceOnUse">
<stop stop-color="#EDF4FF"/>
<stop offset="1" stop-color="#E5EEFF"/>
</linearGradient>
<linearGradient id="paint35_linear_329_661" x1="8855.1" y1="4449.33" x2="9292.96" y2="27274.3" gradientUnits="userSpaceOnUse">
<stop stop-color="#E0EBFF" stop-opacity="0"/>
<stop offset="1" stop-color="#E0EBFF" stop-opacity="0.484"/>
</linearGradient>
<linearGradient id="paint36_linear_329_661" x1="1122.64" y1="-1155.44" x2="4454.76" y2="5527.23" gradientUnits="userSpaceOnUse">
<stop stop-color="#FFDD88"/>
<stop offset="1" stop-color="#FFC021"/>
</linearGradient>
<linearGradient id="paint37_linear_329_661" x1="830.364" y1="-225.872" x2="1657.64" y2="1752.32" gradientUnits="userSpaceOnUse">
<stop stop-color="#FFDD88"/>
<stop offset="1" stop-color="#FFC021"/>
</linearGradient>
<linearGradient id="paint38_linear_329_661" x1="1018.35" y1="-385.68" x2="5391.22" y2="6098.81" gradientUnits="userSpaceOnUse">
<stop stop-color="#22D1D1"/>
<stop offset="1" stop-color="#0FA5A5"/>
</linearGradient>
<linearGradient id="paint39_linear_329_661" x1="649.75" y1="-3.44043" x2="1436.16" y2="1335.15" gradientUnits="userSpaceOnUse">
<stop stop-color="#22D1D1"/>
<stop offset="1" stop-color="#0FA5A5"/>
</linearGradient>
<linearGradient id="paint40_linear_329_661" x1="479.346" y1="142.259" x2="1281.49" y2="867.394" gradientUnits="userSpaceOnUse">
<stop stop-color="#22D1D1"/>
<stop offset="1" stop-color="#0FA5A5"/>
</linearGradient>
<linearGradient id="paint41_linear_329_661" x1="392.337" y1="50.776" x2="2275.49" y2="1954.81" gradientUnits="userSpaceOnUse">
<stop stop-color="#22D1D1"/>
<stop offset="1" stop-color="#0FA5A5"/>
</linearGradient>
<linearGradient id="paint42_linear_329_661" x1="1074.46" y1="-277.944" x2="3111" y2="5175.1" gradientUnits="userSpaceOnUse">
<stop stop-color="#22D1D1"/>
<stop offset="1" stop-color="#0FA5A5"/>
</linearGradient>
<linearGradient id="paint43_linear_329_661" x1="406.118" y1="271.218" x2="2280.12" y2="1734.86" gradientUnits="userSpaceOnUse">
<stop stop-color="#22D1D1"/>
<stop offset="1" stop-color="#0FA5A5"/>
</linearGradient>
<linearGradient id="paint44_linear_329_661" x1="406.118" y1="295.709" x2="2280.12" y2="1759.35" gradientUnits="userSpaceOnUse">
<stop stop-color="#22D1D1"/>
<stop offset="1" stop-color="#0FA5A5"/>
</linearGradient>
<linearGradient id="paint45_linear_329_661" x1="557.509" y1="-235.122" x2="4202" y2="4180.11" gradientUnits="userSpaceOnUse">
<stop stop-color="#22D1D1"/>
<stop offset="1" stop-color="#0FA5A5"/>
</linearGradient>
<linearGradient id="paint46_linear_329_661" x1="545.532" y1="14.2712" x2="1244.1" y2="853.01" gradientUnits="userSpaceOnUse">
<stop stop-color="#22D1D1"/>
<stop offset="1" stop-color="#0FA5A5"/>
</linearGradient>
<linearGradient id="paint47_linear_329_661" x1="516.201" y1="20.355" x2="1272.97" y2="870.076" gradientUnits="userSpaceOnUse">
<stop stop-color="#22D1D1"/>
<stop offset="1" stop-color="#0FA5A5"/>
</linearGradient>
<linearGradient id="paint48_linear_329_661" x1="519.117" y1="23.8496" x2="1275.89" y2="873.57" gradientUnits="userSpaceOnUse">
<stop stop-color="#22D1D1"/>
<stop offset="1" stop-color="#0FA5A5"/>
</linearGradient>
<linearGradient id="paint49_linear_329_661" x1="275.798" y1="402.236" x2="3498.33" y2="2793.29" gradientUnits="userSpaceOnUse">
<stop stop-color="#22D1D1"/>
<stop offset="1" stop-color="#0FA5A5"/>
</linearGradient>
<linearGradient id="paint50_linear_329_661" x1="538.329" y1="343.724" x2="2162.56" y2="2032.87" gradientUnits="userSpaceOnUse">
<stop stop-color="#FFDD88"/>
<stop offset="1" stop-color="#FFC021"/>
</linearGradient>
<linearGradient id="paint51_linear_329_661" x1="604.427" y1="167.046" x2="1361.64" y2="1099.13" gradientUnits="userSpaceOnUse">
<stop stop-color="#FFDD88"/>
<stop offset="1" stop-color="#FFC021"/>
</linearGradient>
<linearGradient id="paint52_linear_329_661" x1="837.675" y1="-587.067" x2="2969.95" y2="3301.55" gradientUnits="userSpaceOnUse">
<stop stop-color="#FFDD88"/>
<stop offset="1" stop-color="#FFC021"/>
</linearGradient>
<linearGradient id="paint53_linear_329_661" x1="990.517" y1="-659.138" x2="2879.69" y2="3341.82" gradientUnits="userSpaceOnUse">
<stop stop-color="#FFDD88"/>
<stop offset="1" stop-color="#FFC021"/>
</linearGradient>
<linearGradient id="paint54_linear_329_661" x1="1055.38" y1="-664.45" x2="2218.16" y2="3405.27" gradientUnits="userSpaceOnUse">
<stop stop-color="#FFDD88"/>
<stop offset="1" stop-color="#FFC021"/>
</linearGradient>
<linearGradient id="paint55_linear_329_661" x1="922.117" y1="-413.737" x2="2053.39" y2="2291.36" gradientUnits="userSpaceOnUse">
<stop stop-color="#FFDD88"/>
<stop offset="1" stop-color="#FFC021"/>
</linearGradient>
<linearGradient id="paint56_linear_329_661" x1="743.205" y1="-641.248" x2="1417.35" y2="2178.56" gradientUnits="userSpaceOnUse">
<stop stop-color="#86E8CF"/>
<stop offset="1" stop-color="#3BC4A1"/>
</linearGradient>
<linearGradient id="paint57_linear_329_661" x1="1045.56" y1="-1425.62" x2="2615" y2="3777.6" gradientUnits="userSpaceOnUse">
<stop stop-color="#86E8CF"/>
<stop offset="1" stop-color="#3BC4A1"/>
</linearGradient>
<linearGradient id="paint58_linear_329_661" x1="907.284" y1="-1369.87" x2="4214.49" y2="4744.74" gradientUnits="userSpaceOnUse">
<stop stop-color="#86E8CF"/>
<stop offset="1" stop-color="#3BC4A1"/>
</linearGradient>
<linearGradient id="paint59_linear_329_661" x1="585.918" y1="-351.473" x2="1409.75" y2="1264.22" gradientUnits="userSpaceOnUse">
<stop stop-color="#86E8CF"/>
<stop offset="1" stop-color="#3BC4A1"/>
</linearGradient>
<linearGradient id="paint60_linear_329_661" x1="762.902" y1="-1021.46" x2="3491.54" y2="3765.93" gradientUnits="userSpaceOnUse">
<stop stop-color="#86E8CF"/>
<stop offset="1" stop-color="#3BC4A1"/>
</linearGradient>
<linearGradient id="paint61_linear_329_661" x1="623.363" y1="7.38164" x2="1150.65" y2="1008.61" gradientUnits="userSpaceOnUse">
<stop stop-color="#86E8CF"/>
<stop offset="1" stop-color="#3BC4A1"/>
</linearGradient>
<linearGradient id="paint62_linear_329_661" x1="956.292" y1="730.37" x2="354.448" y2="1038.92" gradientUnits="userSpaceOnUse">
<stop stop-color="#526060"/>
<stop offset="1" stop-color="#374040"/>
</linearGradient>
<linearGradient id="paint63_linear_329_661" x1="428.742" y1="2551.57" x2="1126.74" y2="1610.74" gradientUnits="userSpaceOnUse">
<stop stop-color="#366056"/>
<stop offset="1" stop-color="#2E4B43"/>
</linearGradient>
<linearGradient id="paint64_linear_329_661" x1="554.397" y1="3504.68" x2="-302.253" y2="64.2056" gradientUnits="userSpaceOnUse">
<stop offset="0.00645" stop-color="#32584F"/>
<stop offset="1" stop-color="#4C9683"/>
</linearGradient>
<linearGradient id="paint65_linear_329_661" x1="825.397" y1="2283.17" x2="2072.52" y2="2283.17" gradientUnits="userSpaceOnUse">
<stop stop-color="#86E8CF"/>
<stop offset="1" stop-color="#36B695"/>
</linearGradient>
<linearGradient id="paint66_linear_329_661" x1="657.5" y1="861.725" x2="340.519" y2="1388.14" gradientUnits="userSpaceOnUse">
<stop stop-color="#FFF1D8"/>
<stop offset="1" stop-color="#FFD599"/>
</linearGradient>
<linearGradient id="paint67_linear_329_661" x1="397.35" y1="1337.98" x2="821.098" y2="942.8" gradientUnits="userSpaceOnUse">
<stop stop-color="#526060"/>
<stop offset="1" stop-color="#374040"/>
</linearGradient>
<linearGradient id="paint68_linear_329_661" x1="-110.26" y1="696.156" x2="-292.624" y2="530.738" gradientUnits="userSpaceOnUse">
<stop stop-color="#FFF1D8"/>
<stop offset="1" stop-color="#FFD599"/>
</linearGradient>
<linearGradient id="paint69_linear_329_661" x1="-296.002" y1="743.714" x2="-564.419" y2="992.838" gradientUnits="userSpaceOnUse">
<stop stop-color="#86E8CF"/>
<stop offset="1" stop-color="#36B695"/>
</linearGradient>
<linearGradient id="paint70_linear_329_661" x1="257.007" y1="1315.2" x2="302.963" y2="1310.48" gradientUnits="userSpaceOnUse">
<stop stop-color="#36B695"/>
<stop offset="1" stop-color="#86E8CF"/>
</linearGradient>
<linearGradient id="paint71_linear_329_661" x1="500.847" y1="732.811" x2="271.525" y2="833.903" gradientUnits="userSpaceOnUse">
<stop stop-color="#FFF1D8"/>
<stop offset="1" stop-color="#FFD599"/>
</linearGradient>
<linearGradient id="paint72_linear_329_661" x1="46.7745" y1="1143.97" x2="2506.46" y2="437.168" gradientUnits="userSpaceOnUse">
<stop stop-color="#FFDD88"/>
<stop offset="1" stop-color="#FFC021"/>
</linearGradient>
<linearGradient id="paint73_linear_329_661" x1="884.771" y1="493.397" x2="884.771" y2="1353.53" gradientUnits="userSpaceOnUse">
<stop stop-color="#AFBABA"/>
<stop offset="1" stop-color="#778484"/>
</linearGradient>
<linearGradient id="paint74_linear_329_661" x1="635.334" y1="2705.31" x2="1345.82" y2="1747.64" gradientUnits="userSpaceOnUse">
<stop stop-color="#366056"/>
<stop offset="1" stop-color="#2E4B43"/>
</linearGradient>
<linearGradient id="paint75_linear_329_661" x1="763.237" y1="3675.47" x2="-108.741" y2="173.429" gradientUnits="userSpaceOnUse">
<stop offset="0.00645" stop-color="#32584F"/>
<stop offset="1" stop-color="#4C9683"/>
</linearGradient>
<linearGradient id="paint76_linear_329_661" x1="1263.52" y1="2306.35" x2="2322.37" y2="2306.35" gradientUnits="userSpaceOnUse">
<stop stop-color="#FFDD88"/>
<stop offset="1" stop-color="#FFC021"/>
</linearGradient>
<linearGradient id="paint77_linear_329_661" x1="868.185" y1="985.22" x2="545.532" y2="1521.06" gradientUnits="userSpaceOnUse">
<stop stop-color="#FFF1D8"/>
<stop offset="1" stop-color="#FFD599"/>
</linearGradient>
<linearGradient id="paint78_linear_329_661" x1="564.929" y1="1361.95" x2="943.382" y2="1003.56" gradientUnits="userSpaceOnUse">
<stop stop-color="#526060"/>
<stop offset="1" stop-color="#374040"/>
</linearGradient>
<radialGradient id="paint79_radial_329_661" cx="0" cy="0" r="1" gradientUnits="userSpaceOnUse" gradientTransform="translate(361.891 907.435) scale(456.679)">
<stop stop-color="#475252"/>
<stop offset="0.99801" stop-color="#2A3131"/>
</radialGradient>
<linearGradient id="paint80_linear_329_661" x1="513.972" y1="738.777" x2="284.649" y2="839.87" gradientUnits="userSpaceOnUse">
<stop stop-color="#FFF1D8"/>
<stop offset="1" stop-color="#FFD599"/>
</linearGradient>
<linearGradient id="paint81_linear_329_661" x1="59.8995" y1="1149.94" x2="2519.59" y2="443.135" gradientUnits="userSpaceOnUse">
<stop stop-color="#FFDD88"/>
<stop offset="1" stop-color="#FFC021"/>
</linearGradient>
<linearGradient id="paint82_linear_329_661" x1="502.072" y1="1296.48" x2="413.028" y2="1310.59" gradientUnits="userSpaceOnUse">
<stop stop-color="#FFDD88"/>
<stop offset="1" stop-color="#FFC021"/>
</linearGradient>
<linearGradient id="paint83_linear_329_661" x1="1072.45" y1="797.109" x2="455.093" y2="1113.78" gradientUnits="userSpaceOnUse">
<stop stop-color="#526060"/>
<stop offset="1" stop-color="#374040"/>
</linearGradient>
<linearGradient id="paint84_linear_329_661" x1="526.621" y1="4407.23" x2="526.621" y2="401.068" gradientUnits="userSpaceOnUse">
<stop stop-color="#D7F4ED"/>
<stop offset="1" stop-color="#BBD9D9"/>
</linearGradient>
<linearGradient id="paint85_linear_329_661" x1="627.765" y1="4845.76" x2="627.765" y2="399.674" gradientUnits="userSpaceOnUse">
<stop stop-color="#D7F4ED"/>
<stop offset="1" stop-color="#E5FFFF"/>
</linearGradient>
<linearGradient id="paint86_linear_329_661" x1="909.371" y1="2000.94" x2="1376.36" y2="2162.5" gradientUnits="userSpaceOnUse">
<stop stop-color="#22D1D1"/>
<stop offset="1" stop-color="#0FA5A5"/>
</linearGradient>
<linearGradient id="paint87_linear_329_661" x1="765.545" y1="937.817" x2="440.497" y2="1477.63" gradientUnits="userSpaceOnUse">
<stop stop-color="#FFF1D8"/>
<stop offset="1" stop-color="#FFD599"/>
</linearGradient>
<linearGradient id="paint88_linear_329_661" x1="543.7" y1="1567.41" x2="1121.86" y2="1080.63" gradientUnits="userSpaceOnUse">
<stop stop-color="#526060"/>
<stop offset="1" stop-color="#374040"/>
</linearGradient>
<linearGradient id="paint89_linear_329_661" x1="613.603" y1="-235.039" x2="648.833" y2="-166.504" gradientUnits="userSpaceOnUse">
<stop stop-color="#22D1D1"/>
<stop offset="1" stop-color="#0FA5A5"/>
</linearGradient>
<linearGradient id="paint90_linear_329_661" x1="545.172" y1="378.208" x2="462.097" y2="616.625" gradientUnits="userSpaceOnUse">
<stop stop-color="#FFF1D8"/>
<stop offset="1" stop-color="#FFD599"/>
</linearGradient>
<linearGradient id="paint91_linear_329_661" x1="837.803" y1="197.715" x2="1229.07" y2="403.521" gradientUnits="userSpaceOnUse">
<stop stop-color="#22D1D1"/>
<stop offset="1" stop-color="#0FA5A5"/>
</linearGradient>
<linearGradient id="paint92_linear_329_661" x1="673.004" y1="2383.54" x2="11190.3" y2="2383.54" gradientUnits="userSpaceOnUse">
<stop stop-color="#014FE0"/>
<stop offset="0.51359" stop-color="#85B0FF"/>
<stop offset="1" stop-color="#0047CC"/>
</linearGradient>
<linearGradient id="paint93_linear_329_661" x1="673" y1="3351.38" x2="11190.3" y2="3351.38" gradientUnits="userSpaceOnUse">
<stop stop-color="#EDF4FF"/>
<stop offset="1" stop-color="#E5EEFF"/>
</linearGradient>
<linearGradient id="paint94_linear_329_661" x1="4083.23" y1="1993.33" x2="4256.29" y2="11014.7" gradientUnits="userSpaceOnUse">
<stop stop-color="#E0EBFF" stop-opacity="0"/>
<stop offset="1" stop-color="#E0EBFF" stop-opacity="0.484"/>
</linearGradient>
<linearGradient id="paint95_linear_329_661" x1="1202.64" y1="-1039.44" x2="4534.76" y2="5643.23" gradientUnits="userSpaceOnUse">
<stop stop-color="#FFDD88"/>
<stop offset="1" stop-color="#FFC021"/>
</linearGradient>
<linearGradient id="paint96_linear_329_661" x1="910.364" y1="-109.872" x2="1737.64" y2="1868.32" gradientUnits="userSpaceOnUse">
<stop stop-color="#FFDD88"/>
<stop offset="1" stop-color="#FFC021"/>
</linearGradient>
<linearGradient id="paint97_linear_329_661" x1="618.329" y1="459.725" x2="2242.56" y2="2148.87" gradientUnits="userSpaceOnUse">
<stop stop-color="#FFDD88"/>
<stop offset="1" stop-color="#FFC021"/>
</linearGradient>
<linearGradient id="paint98_linear_329_661" x1="684.427" y1="283.046" x2="1441.64" y2="1215.13" gradientUnits="userSpaceOnUse">
<stop stop-color="#FFDD88"/>
<stop offset="1" stop-color="#FFC021"/>
</linearGradient>
<linearGradient id="paint99_linear_329_661" x1="917.675" y1="-471.067" x2="3049.95" y2="3417.55" gradientUnits="userSpaceOnUse">
<stop stop-color="#FFDD88"/>
<stop offset="1" stop-color="#FFC021"/>
</linearGradient>
<linearGradient id="paint100_linear_329_661" x1="1070.52" y1="-543.138" x2="2959.69" y2="3457.82" gradientUnits="userSpaceOnUse">
<stop stop-color="#FFDD88"/>
<stop offset="1" stop-color="#FFC021"/>
</linearGradient>
<linearGradient id="paint101_linear_329_661" x1="1135.38" y1="-548.45" x2="2298.16" y2="3521.27" gradientUnits="userSpaceOnUse">
<stop stop-color="#FFDD88"/>
<stop offset="1" stop-color="#FFC021"/>
</linearGradient>
<linearGradient id="paint102_linear_329_661" x1="1002.12" y1="-297.737" x2="2133.39" y2="2407.36" gradientUnits="userSpaceOnUse">
<stop stop-color="#FFDD88"/>
<stop offset="1" stop-color="#FFC021"/>
</linearGradient>
</defs>
</svg>
